<svg width="167" height="25" viewBox="0 0 167 25" fill="none" xmlns="http://www.w3.org/2000/svg">
<g clip-path="url(#clip0_3937_8531)">
<path d="M15.1862 7.98972L24.1847 23.4687C24.4081 23.862 24.9769 23.8721 25.2308 23.499L28.562 18.3864C28.6839 18.1948 28.6941 17.9527 28.5823 17.7511L18.6089 0.638459C18.3753 0.235097 17.7862 0.235097 17.5526 0.638459L14.6174 5.66031C14.5057 5.8519 14.3026 5.96283 14.0893 5.96283H7.95491C7.73147 5.96283 7.5385 6.07375 7.42679 6.26535L0.743946 17.7813C0.632226 17.9729 0.632226 18.1948 0.743946 18.3864L4.01427 24.0334C4.12599 24.225 4.32912 24.3359 4.5424 24.3359H17.6643C18.1315 24.3359 18.4261 23.8317 18.1925 23.4284L15.176 18.2553C14.9424 17.8519 14.3534 17.8519 14.1198 18.2553L11.7737 22.309C11.5401 22.7124 10.951 22.7124 10.7174 22.309L8.44241 18.3864C8.3307 18.1948 8.3307 17.9729 8.44241 17.7813L14.1198 7.9998C14.3534 7.59644 14.9424 7.59644 15.176 7.9998L15.1862 7.98972Z" fill="#FF802C"/>
<path d="M53.1326 16.698H45.7987L44.4003 20.0635H40.6602L47.7013 4.33594H51.3114L58.3688 20.0635H54.5311L53.1326 16.698ZM51.9781 13.9311L49.4738 7.91186L46.9696 13.9311H51.9781Z" fill="#434343"/>
<path d="M62.4336 4.35156H66.0924V20.0792H62.4336V4.35156Z" fill="#434343"/>
<path d="M81.2611 20.0792L78.2202 15.6942H74.8541V20.0792H71.1953V4.35156H78.0413C79.4398 4.35156 80.6594 4.57809 81.6839 5.04733C82.7084 5.51657 83.5052 6.1638 84.0581 7.02137C84.6109 7.87895 84.8874 8.88215 84.8874 10.0472C84.8874 11.2122 84.6109 12.2154 84.0418 13.0729C83.4726 13.9305 82.6758 14.5616 81.6351 15.0146L85.1801 20.063H81.2448L81.2611 20.0792ZM80.3342 8.02457C79.7651 7.55533 78.9195 7.31262 77.8299 7.31262H74.8541V12.7979H77.8299C78.9357 12.7979 79.7651 12.5552 80.3342 12.0859C80.9034 11.6005 81.1961 10.9371 81.1961 10.0633C81.1961 9.18958 80.9034 8.50999 80.3342 8.02457Z" fill="#434343"/>
<path d="M104.684 4.35156L97.8376 20.0792H94.2276L87.4141 4.35156H91.3656L96.1789 15.5809L101.057 4.35156H104.684Z" fill="#434343"/>
<path d="M115.496 16.698H108.162L106.764 20.0635H103.023L110.065 4.33594H113.675L120.732 20.0635H116.894L115.496 16.698ZM114.341 13.9311L111.837 7.91186L109.333 13.9311H114.341Z" fill="#434343"/>
<path d="M124.812 18.4773C123.56 17.2314 122.926 15.4677 122.926 13.1538V4.35156H126.585V13.0244C126.585 15.8398 127.755 17.2475 130.113 17.2475C131.252 17.2475 132.13 16.9077 132.731 16.2282C133.333 15.5486 133.626 14.4807 133.626 13.0244V4.35156H137.236V13.1538C137.236 15.4677 136.602 17.2314 135.349 18.4773C134.097 19.7232 132.341 20.338 130.081 20.338C127.82 20.338 126.064 19.7232 124.812 18.4773Z" fill="#434343"/>
<path d="M141.844 4.35212H145.503V17.1025H153.422V20.0635H141.844V4.33594V4.35212Z" fill="#434343"/>
<path d="M157.944 7.31262H152.887V4.35156H166.66V7.31262H161.603V20.063H157.944V7.31262Z" fill="#434343"/>
</g>
<defs>
<clipPath id="clip0_3937_8531">
<rect width="165.998" height="24" fill="white" transform="translate(0.660156 0.335938)"/>
</clipPath>
</defs>
</svg>
